# xmcd
#
# Track frame offsets:
#	150
#	22102
#	39430
#	54675
#
# Disc length: 971 seconds
#
# Revision: 1
# Processed by: cddbd v1.4PL0 Copyright (c) Steve Scherf et al.
# Submitted via: audiograbber 1.82.02
#
DISCID=2f03c904
DTITLE=Mary Chapin Carpenter - Stones In The Road - Bonus Disc
DYEAR=1994
DGENRE=Country
TTITLE0=Hometown Girl
TTITLE1=This Shirt
TTITLE2=Down At The Twist And Shout
TTITLE3=He Thinks He'll Keep Her
EXTD=
EXTT0=
EXTT1=
EXTT2=
EXTT3=
PLAYORDER=
